<?xml version="1.0" encoding="utf-8"?>
<!-- Generator: Adobe Illustrator 17.0.0, SVG Export Plug-In . SVG Version: 6.00 Build 0)  -->
<!DOCTYPE svg PUBLIC "-//W3C//DTD SVG 1.1 Basic//EN" "http://www.w3.org/Graphics/SVG/1.1/DTD/svg11-basic.dtd">
<svg version="1.1" baseProfile="basic" id="Camada_1"
	 xmlns="http://www.w3.org/2000/svg" xmlns:xlink="http://www.w3.org/1999/xlink" x="0px" y="0px" width="102px" height="47px"
	 viewBox="0 0 102 47" xml:space="preserve">
<g>
	<g>
		<path fill="#009BDE" d="M89.055,0.764c-3.117,1.709-3.327,12.894-0.027,14.22c3.082,1.237,11.203-3.789,11.224-7.11
			C100.271,4.558,91.963-0.831,89.055,0.764z M90.966,10.549c-0.3,0.3-0.791,0.3-1.091,0.001l-0.061-0.062
			c-0.3-0.3-0.3-0.792,0-1.092l1.024-1.024c0.3-0.3,0.3-0.791,0-1.092l-1.024-1.024c-0.3-0.3-0.3-0.792,0-1.092l0.061-0.062
			c0.3-0.3,0.791-0.3,1.091,0.001l2.178,2.177c0.301,0.301,0.301,0.792,0,1.092L90.966,10.549z M96.814,8.371l-2.178,2.177
			c-0.3,0.3-0.79,0.3-1.091,0.001l-0.061-0.062c-0.3-0.3-0.3-0.792,0-1.092l1.024-1.024c0.3-0.3,0.3-0.791,0-1.092l-1.024-1.024
			c-0.3-0.3-0.3-0.792,0-1.092l0.061-0.062c0.301-0.3,0.791-0.3,1.091,0.001l2.178,2.177C97.115,7.58,97.115,8.071,96.814,8.371z"/>
		<g>
			<path fill="#002856" d="M87.457,18.742c-0.009-0.024-0.021-0.046-0.03-0.069c-0.005-0.012-0.009-0.025-0.014-0.037
				c-0.579-1.402-1.374-2.625-2.387-3.671c-1.013-1.045-2.213-1.865-3.599-2.459c-1.387-0.594-2.875-0.891-4.467-0.891
				c-1.592,0-3.075,0.297-4.45,0.891c-1.375,0.594-2.569,1.414-3.582,2.459c-1.013,1.046-1.741,2.269-2.32,3.671
				c-0.579,1.402-0.801,2.923-0.801,4.562c0,0.013,0,18.427,0,22.525c0,0.443,0.365,0.803,0.815,0.803h4.353
				c0.45,0,0.815-0.36,0.815-0.803V34.35c0-0.876,0.847-0.315,0.847-0.315c1.374,0.593,2.773,0.927,4.365,0.927h0.001
				c1.59,0,3.08-0.333,4.467-0.927c1.388-0.595,2.586-1.433,3.6-2.478c1.013-1.045,1.809-2.278,2.387-3.681
				c0.579-1.402,0.868-2.928,0.868-4.568C88.325,21.668,88.037,20.144,87.457,18.742z M82.236,25.643
				c-0.301,0.734-0.708,1.37-1.219,1.909c-0.514,0.539-1.112,0.969-1.798,1.29c-0.687,0.321-1.426,0.481-2.215,0.481
				c-0.768,0-1.496-0.16-2.182-0.481c-0.687-0.321-1.286-0.751-1.798-1.29c-0.511-0.539-0.919-1.175-1.221-1.909
				c-0.302-0.733-0.454-1.513-0.454-2.338c0-0.825,0.152-1.605,0.454-2.339c0.302-0.733,0.71-1.369,1.221-1.909
				c0.512-0.537,1.111-0.968,1.798-1.288c0.686-0.321,1.414-0.482,2.182-0.482c0.79,0,1.529,0.16,2.215,0.482
				c0.686,0.321,1.284,0.751,1.798,1.288c0.511,0.54,0.918,1.176,1.219,1.909c0.303,0.734,0.455,1.514,0.455,2.339
				C82.691,24.129,82.539,24.909,82.236,25.643z"/>
			<path fill="#002856" d="M51.765,14.994c-1.007-1.055-2.2-1.882-3.578-2.481c-1.379-0.599-2.858-0.899-4.441-0.899
				c-1.582,0-3.057,0.3-4.423,0.899c-1.366,0.599-2.553,1.427-3.56,2.481c-1.007,1.055-1.798,2.289-2.373,3.704
				c-0.575,1.415-0.863,2.949-0.863,4.603c0,1.654,0.288,3.189,0.863,4.603c0.575,1.414,1.367,2.649,2.373,3.703
				c1.007,1.055,2.193,1.882,3.56,2.481c1.367,0.599,2.841,0.899,4.423,0.899c1.583,0,3.062-0.3,4.441-0.899
				c1.378-0.6,2.571-1.426,3.578-2.481c1.007-1.055,1.797-2.289,2.373-3.703c0.576-1.414,0.863-2.949,0.863-4.603
				c0-1.654-0.287-3.188-0.863-4.603C53.562,17.283,52.771,16.049,51.765,14.994z M48.805,25.687
				c-0.287,0.71-0.676,1.327-1.164,1.849c-0.49,0.522-1.061,0.938-1.715,1.249c-0.655,0.311-1.36,0.466-2.114,0.466
				c-0.732,0-1.427-0.155-2.082-0.466c-0.656-0.311-1.227-0.727-1.716-1.249c-0.488-0.522-0.876-1.138-1.165-1.849
				c-0.288-0.71-0.433-1.465-0.433-2.264c0-0.799,0.145-1.554,0.433-2.265c0.288-0.711,0.677-1.326,1.165-1.849
				c0.489-0.52,1.06-0.937,1.716-1.248c0.655-0.312,1.35-0.466,2.082-0.466c0.754,0,1.459,0.155,2.114,0.466
				c0.654,0.31,1.225,0.727,1.715,1.248c0.488,0.523,0.876,1.138,1.164,1.849c0.289,0.711,0.435,1.466,0.435,2.265
				C49.24,24.222,49.094,24.977,48.805,25.687z"/>
			<circle fill="#002856" cx="60.349" cy="6.397" r="2.77"/>
			<path fill="#002856" d="M27.561,14.165c-0.763-0.798-1.674-1.402-2.71-1.876c-0.816-0.373-1.695-0.545-1.695-0.545
				c-0.51-0.079-1.073-0.121-1.693-0.121h-0.001h0c-1.139,0-2.19,0.21-3.2,0.641c-0.601,0.253-1.657,0.952-1.657,0.952l-0.124,0.08
				c-0.25,0.164-1.01,0.531-1.804-0.011l-0.363-0.255c-0.45-0.299-0.927-0.554-1.433-0.768c-1.01-0.431-2.085-0.644-3.225-0.644
				c-0.619,0-1.184,0.045-1.694,0.124c-0.497,0.081-0.985,0.238-1.463,0.462c-0.077,0.031-0.157,0.059-0.234,0.093
				c-1.045,0.45-1.948,1.074-2.711,1.872c-0.762,0.797-1.366,1.734-1.807,2.819c-0.436,1.08-0.666,2.254-0.666,3.512v13.666
				c0,0.444,0.36,0.803,0.803,0.803h3.838c0.444,0,0.803-0.36,0.803-0.803V20.238c0-1.765,1.414-3.217,3.179-3.217
				c1.766,0,3.172,1.429,3.172,3.195v6.829v7.121c0,0.444,0.36,0.803,0.803,0.803h3.607c0.444,0,0.803-0.36,0.803-0.803v-7.121
				v-6.68c0-1.835,1.293-3.344,3.129-3.344c1.835,0,3.227,1.486,3.227,3.322v13.824c0,0.444,0.36,0.803,0.803,0.803h3.838
				c0.444,0,0.803-0.36,0.803-0.803V20.5c0-1.258-0.158-2.433-0.594-3.513C28.859,15.901,28.324,14.963,27.561,14.165z"/>
			<path fill="#002856" d="M61.129,12.703c-0.799-0.646-1.707-1.051-2.815-1.12c-0.488,0-0.716,0.599-0.716,1.116v21.466
				c0,0.45,0.365,0.815,0.815,0.815h3.892c0.45,0,0.815-0.365,0.815-0.815V17.061C63.12,15.341,62.343,13.685,61.129,12.703z"/>
		</g>
	</g>
</g>
</svg>
